<svg xmlns="http://www.w3.org/2000/svg" width="98" height="19" fill="none"><path fill="#FFD029" d="M8.132 2.02a1 1 0 0 1 1.736 0l1.786 3.128a1 1 0 0 0 .665.483l3.526.732a1 1 0 0 1 .537 1.652l-2.422 2.664a1 1 0 0 0-.254.782l.393 3.58a1 1 0 0 1-1.405 1.02l-3.283-1.48a1 1 0 0 0-.822 0l-3.283 1.48a1 1 0 0 1-1.405-1.02l.393-3.58a1 1 0 0 0-.254-.782L1.618 8.015a1 1 0 0 1 .537-1.652L5.68 5.63a1 1 0 0 0 .665-.483L8.132 2.02zm20 0a1 1 0 0 1 1.736 0l1.786 3.128a1 1 0 0 0 .665.483l3.526.732a1 1 0 0 1 .537 1.652l-2.422 2.664a1 1 0 0 0-.254.782l.393 3.58a1 1 0 0 1-1.405 1.02l-3.283-1.48a1 1 0 0 0-.822 0l-3.283 1.48a1 1 0 0 1-1.405-1.02l.393-3.58a1 1 0 0 0-.254-.782l-2.422-2.664a1 1 0 0 1 .537-1.652l3.526-.732a1 1 0 0 0 .665-.483l1.786-3.127zm20 0a1 1 0 0 1 1.736 0l1.786 3.128a1 1 0 0 0 .665.483l3.526.732a1 1 0 0 1 .537 1.652l-2.422 2.664a1 1 0 0 0-.254.782l.393 3.58a1 1 0 0 1-1.405 1.02l-3.283-1.48a1 1 0 0 0-.822 0l-3.283 1.48a1 1 0 0 1-1.405-1.02l.393-3.58a1 1 0 0 0-.254-.782l-2.422-2.664a1 1 0 0 1 .537-1.652l3.526-.732a1 1 0 0 0 .665-.483l1.786-3.127zm20 0a1 1 0 0 1 1.736 0l1.786 3.128a1 1 0 0 0 .665.483l3.526.732a1 1 0 0 1 .537 1.652l-2.422 2.664a1 1 0 0 0-.254.782l.393 3.58a1 1 0 0 1-1.405 1.02l-3.283-1.48a1 1 0 0 0-.822 0l-3.283 1.48a1 1 0 0 1-1.405-1.02l.393-3.58a1 1 0 0 0-.254-.782l-2.422-2.664a1 1 0 0 1 .537-1.652l3.526-.732a1 1 0 0 0 .665-.483l1.786-3.127zm20 0a1 1 0 0 1 1.736 0l1.786 3.128a1 1 0 0 0 .665.483l3.526.732a1 1 0 0 1 .537 1.652l-2.422 2.664a1 1 0 0 0-.254.782l.393 3.58a1 1 0 0 1-1.405 1.02l-3.283-1.48a1 1 0 0 0-.822 0l-3.283 1.48a1 1 0 0 1-1.405-1.02l.393-3.58a1 1 0 0 0-.254-.782l-2.422-2.664a1 1 0 0 1 .537-1.652l3.526-.732a1 1 0 0 0 .665-.483l1.786-3.127z"/></svg>