<svg xmlns="http://www.w3.org/2000/svg" width="22" height="16" fill="none"><g fill="#262626" clip-path="url(#a)"><path d="M4.667 10.352c-.415 2.297-1.106 3.948-1.656 4.97-.214.4.224.844.614.615C8.23 13.234 10.247 9.29 10.5 6.13 10.715 3.403 8.869.595 6.07.083 3.27-.427.59 1.443.083 4.263c-.533 2.957 1.536 5.797 4.584 6.09zm11.485 0c-.415 2.298-1.105 3.948-1.656 4.97-.214.4.225.845.614.615 4.604-2.703 6.622-6.645 6.874-9.806.216-2.728-1.63-5.536-4.429-6.048-2.798-.511-5.48 1.36-5.986 4.18-.532 2.955 1.536 5.795 4.585 6.088l-.002.001z"/></g><defs><clipPath id="a"><path fill="#fff" d="M0 0h22v16H0z"/></clipPath></defs></svg>