<svg xmlns="http://www.w3.org/2000/svg" width="32" height="33" fill="none"><path fill="url(#a)" d="M16 30.5c7.732 0 14-6.268 14-14s-6.268-14-14-14-14 6.268-14 14 6.268 14 14 14z"/><path fill="#fff" d="M18.447 9.154a1.106 1.106 0 0 0-.404-1.507 1.096 1.096 0 0 0-1.5.406l-.528.921-.527-.92a1.096 1.096 0 0 0-1.5-.407 1.106 1.106 0 0 0-.404 1.507l1.164 2.032-3.683 6.429H8.098A1.1 1.1 0 0 0 7 18.718a1.1 1.1 0 0 0 1.098 1.104h10.334c.091-.24.186-.65.085-1.027-.153-.567-.717-1.18-1.663-1.18H13.6l4.847-8.461zm-6.811 11.888c-.187-.209-.607-.543-.975-.653-.561-.168-.987-.063-1.202.03l-.818 1.427a1.106 1.106 0 0 0 .404 1.507 1.095 1.095 0 0 0 1.5-.406l1.091-1.905z"/><path fill="#fff" d="M22.23 19.822h1.672A1.1 1.1 0 0 0 25 18.718a1.1 1.1 0 0 0-1.098-1.103h-2.937l-3.308-5.774c-.245.235-.716.834-.788 1.514-.091.873.046 1.609.458 2.33l4.158 7.262c.303.528.974.71 1.5.406.526-.304.707-.979.404-1.507l-1.16-2.024z"/><defs><linearGradient id="a" x1="16" x2="16" y1="2.5" y2="30.5" gradientUnits="userSpaceOnUse"><stop stop-color="#2AC9FA"/><stop offset="1" stop-color="#1F65EB"/></linearGradient></defs></svg>